<?xml version="1.0" encoding="utf-8"?>
<!-- Generator: Adobe Illustrator 26.0.1, SVG Export Plug-In . SVG Version: 6.00 Build 0)  -->
<svg version="1.1" id="Layer_1" xmlns="http://www.w3.org/2000/svg" xmlns:xlink="http://www.w3.org/1999/xlink" x="0px" y="0px"
	 viewBox="0 0 120 120" style="enable-background:new 0 0 120 120;" xml:space="preserve">
<style type="text/css">
	.st0{fill:none;stroke:#BDC5D1;stroke-width:3;stroke-linecap:round;stroke-linejoin:round;stroke-miterlimit:10;}
	.st1{fill:#377DFF;}
	.st2{fill:#FFFFFF;}
	.st3{fill:#BDC5D1;}
	.st4{clip-path:url(#SVGID_00000049185405177072923630000002386591262144723331_);fill:#FFFFFF;}
	.st5{fill:none;}
</style>
<polygon class="st0" points="102.6,89.5 42.8,89.5 17.7,32.1 2.1,32.1 2.1,24.9 22.4,24.9 47.5,82.3 102.6,82.3 "/>
<path class="st1" d="M66.7,107.4c0,5.9-4.8,10.8-10.8,10.8s-10.8-4.8-10.8-10.8S50,96.7,55.9,96.7S66.7,101.5,66.7,107.4z"/>
<path class="st1" d="M102.6,107.4c0,5.9-4.8,10.8-10.8,10.8S81,113.4,81,107.4s4.8-10.8,10.8-10.8S102.6,101.5,102.6,107.4z"/>
<path class="st2" d="M95.1,107.4c0,1.8-1.5,3.3-3.3,3.3s-3.3-1.5-3.3-3.3s1.5-3.3,3.3-3.3S95.1,105.6,95.1,107.4z"/>
<path class="st2" d="M59.2,107.4c0,1.8-1.5,3.3-3.3,3.3s-3.3-1.5-3.3-3.3s1.5-3.3,3.3-3.3C57.7,104.2,59.2,105.6,59.2,107.4z"/>
<path class="st3" d="M91.8,60.8c-13.7,0-25.4-8.7-30-20.8c-0.2-0.4-0.6-0.7-1-0.7H39.6c-0.8,0-1.3,0.8-1,1.5L52,74.4
	c0.2,0.4,0.6,0.7,1,0.7h48.7c0.5,0,0.9-0.3,1-0.7l6.7-16.7c0.4-1-0.7-1.9-1.6-1.4C103.2,59.2,97.7,60.8,91.8,60.8z"/>
<g>
	<g>
		<circle id="icon48ID_1" class="st1" cx="89.8" cy="35.2" r="22"/>
	</g>
	<g>
		<defs>
			<circle id="SVGID_1_" cx="89.8" cy="35.2" r="22"/>
		</defs>
		<clipPath id="SVGID_00000136398232386130126690000009224671396694828162_">
			<use xlink:href="#SVGID_1_"  style="overflow:visible;"/>
		</clipPath>
		
			<circle style="clip-path:url(#SVGID_00000136398232386130126690000009224671396694828162_);fill:#FFFFFF;" cx="89.6" cy="57.2" r="16.6"/>
	</g>
	<g>
		<circle id="icon48ID_1_00000134213248713943738620000007777789352875888315_" class="st5" cx="89.8" cy="35.2" r="22"/>
	</g>
</g>
<circle class="st2" cx="89.8" cy="27" r="6.4"/>
</svg>
